# xmcd
#
# Track frame offsets: 
#        150
#        23084
#        47803
#        65278
#        81757
#        97735
#        119266
#        140056
#        155807
#        172747
#        190162
#        210963
#        228402
#        269133
#        287862
#
# Disc length: 4372 seconds
#
# Revision: 0
# Processed by: cddbd v1.5.2PL0 Copyright (c) Steve Scherf et al.
# Submitted via: ExactAudioCopy v0.99pb4
#
DISCID=cf11120f
DTITLE=Eric Roberson - ...Left
DYEAR=2007
DGENRE=R&B
TTITLE0=Music
TTITLE1=Evening
TTITLE2=Been In Love Featuring Phonte
TTITLE3=Pen Just Cries Away
TTITLE4=Iluvu2much Featuring Algebra Blessett
TTITLE5=Only For You
TTITLE6=Pretty Girl
TTITLE7=Too Soon
TTITLE8=If I Had A Chance
TTITLE9=Open Your Eyes
TTITLE10=Right Or Wrong
TTITLE11=The Baby Song
TTITLE12=Couldn't Hear Her Featuring Curt Chambers
TTITLE13=Man Who Had It All
TTITLE14=Don't Change (Live)
EXTD=
EXTT0=
EXTT1=
EXTT2=
EXTT3=
EXTT4=
EXTT5=
EXTT6=
EXTT7=
EXTT8=
EXTT9=
EXTT10=
EXTT11=
EXTT12=
EXTT13=
EXTT14=
PLAYORDER=
